<svg xmlns="http://www.w3.org/2000/svg" viewBox="0 0 48 48">
  <rect width="48" height="48" rx="12" fill="#010101"/>
  <path d="M34.2 10.5c-.9-1-1.5-2.4-1.5-3.9h-4.6v23.3c-.1 2-1.8 3.6-3.9 3.6a3.87 3.87 0 0 1-3.9-3.9 3.87 3.87 0 0 1 3.9-3.9c.4 0 .7.1 1.1.2v-4.7c-.4-.1-.7-.1-1.1-.1-4.7 0-8.5 3.8-8.5 8.5S21 38.1 25.7 38.1s8.5-3.8 8.5-8.5V18.8c1.8 1.3 4 2 6.3 2V16c-1.3 0-4.5-.9-6.3-5.5z" fill="#fff"/>
  <path d="M38.7 16v4.8c-2.3 0-4.5-.7-6.3-2v11.8c0 4.7-3.8 8.5-8.5 8.5s-8.5-3.8-8.5-8.5 3.8-8.5 8.5-8.5c.4 0 .7 0 1.1.1v4.7c-.4-.1-.7-.2-1.1-.2a3.87 3.87 0 0 0-3.9 3.9 3.87 3.87 0 0 0 3.9 3.9c2.1 0 3.8-1.6 3.9-3.6V6.6h4.6c0 1.5.6 2.9 1.5 3.9 1.8 4.6 5 5.5 6.3 5.5h.5z" fill="#ee1d52"/>
  <path d="M25.6 20.1c-.4-.1-.7-.1-1.1-.1-4.7 0-8.5 3.8-8.5 8.5s3.8 8.5 8.5 8.5 8.5-3.8 8.5-8.5V16.6c1.8 1.3 4 2 6.3 2v-1.8c-1.3 0-4.5-.9-6.3-5.5-.9-1-1.5-2.4-1.5-3.9h-1.6v22.8c-.1 2-1.8 3.6-3.9 3.6a3.87 3.87 0 0 1-3.9-3.9 3.87 3.87 0 0 1 3.9-3.9c.4 0 .7.1 1.1.2l.5-5.1z" fill="#69c9d0"/>
</svg>
