<svg xmlns="http://www.w3.org/2000/svg" viewBox="0 0 48 48">
  <rect width="48" height="48" rx="12" fill="#ff0000"/>
  <path d="M38.5 17.5s-.4-2.5-1.5-3.6c-1.4-1.5-3-.5-3.7-.6C30.3 13 24 13 24 13s-6.3 0-9.3.3c-.7.1-2.3-.1-3.7.6-1.1 1.1-1.5 3.6-1.5 3.6S9 20.3 9 23.1v2.6c0 2.8.5 5.6.5 5.6s.4 2.5 1.5 3.6c1.4 1.5 3.3 1.4 4.1 1.6C17.3 36.7 24 36.8 24 36.8s6.3 0 9.3-.4c.7-.1 2.3.1 3.7-.6 1.1-1.1 1.5-3.6 1.5-3.6s.5-2.8.5-5.6v-2.6c0-2.8-.5-5.6-.5-5.6zm-14.4 11.4v-9.7l8.3 4.9-8.3 4.8z" fill="#fff"/>
</svg>
